<mxfile host="65bd71144e">
    <diagram id="S1mi6bxbC9XWDfJ3HEK7" name="Page-1">
        <mxGraphModel dx="1725" dy="32" grid="1" gridSize="10" guides="1" tooltips="1" connect="1" arrows="1" fold="1" page="1" pageScale="1" pageWidth="1100" pageHeight="850" background="#ffffff" math="0" shadow="0">
            <root>
                <mxCell id="0"/>
                <mxCell id="1" parent="0"/>
                <mxCell id="117" style="edgeStyle=none;html=1;" edge="1" parent="1" source="52" target="61">
                    <mxGeometry relative="1" as="geometry"/>
                </mxCell>
                <mxCell id="52" value="3.1 Shader Compilation &amp;amp; Linking" style="ellipse;whiteSpace=wrap;html=1;aspect=fixed;fillColor=#f8cecc;strokeColor=#b85450;" parent="1" vertex="1">
                    <mxGeometry x="-875" y="1040" width="130" height="130" as="geometry"/>
                </mxCell>
                <mxCell id="115" style="edgeStyle=none;html=1;" edge="1" parent="1" source="53" target="52">
                    <mxGeometry relative="1" as="geometry"/>
                </mxCell>
                <mxCell id="120" style="edgeStyle=none;html=1;" edge="1" parent="1" source="53" target="61">
                    <mxGeometry relative="1" as="geometry">
                        <Array as="points">
                            <mxPoint x="-535" y="930"/>
                        </Array>
                    </mxGeometry>
                </mxCell>
                <mxCell id="53" value="USER" style="rounded=1;whiteSpace=wrap;html=1;fillColor=#dae8fc;strokeColor=#6c8ebf;" parent="1" vertex="1">
                    <mxGeometry x="-870" y="900" width="120" height="60" as="geometry"/>
                </mxCell>
                <mxCell id="124" style="edgeStyle=none;html=1;" edge="1" parent="1" source="58" target="112">
                    <mxGeometry relative="1" as="geometry">
                        <Array as="points">
                            <mxPoint x="-550" y="1620"/>
                        </Array>
                    </mxGeometry>
                </mxCell>
                <mxCell id="58" value="GPU" style="rounded=1;whiteSpace=wrap;html=1;fillColor=#dae8fc;strokeColor=#6c8ebf;" parent="1" vertex="1">
                    <mxGeometry x="-710" y="1590" width="120" height="60" as="geometry"/>
                </mxCell>
                <mxCell id="123" style="edgeStyle=none;html=1;" edge="1" parent="1" source="60" target="112">
                    <mxGeometry relative="1" as="geometry"/>
                </mxCell>
                <mxCell id="60" value="3.3 Uniform &amp;amp; State Configuration" style="ellipse;whiteSpace=wrap;html=1;aspect=fixed;fillColor=#f8cecc;strokeColor=#b85450;" parent="1" vertex="1">
                    <mxGeometry x="-920" y="1360" width="130" height="130" as="geometry"/>
                </mxCell>
                <mxCell id="122" style="edgeStyle=none;html=1;exitX=0;exitY=1;exitDx=0;exitDy=0;" edge="1" parent="1" source="61" target="60">
                    <mxGeometry relative="1" as="geometry">
                        <Array as="points">
                            <mxPoint x="-581" y="1240"/>
                            <mxPoint x="-855" y="1240"/>
                        </Array>
                    </mxGeometry>
                </mxCell>
                <mxCell id="61" value="3.2 Buffer Allocation &amp;amp; Upload" style="ellipse;whiteSpace=wrap;html=1;aspect=fixed;fillColor=#f8cecc;strokeColor=#b85450;" parent="1" vertex="1">
                    <mxGeometry x="-600" y="1040" width="130" height="130" as="geometry"/>
                </mxCell>
                <mxCell id="119" style="edgeStyle=none;html=1;" edge="1" parent="1" source="65" target="61">
                    <mxGeometry relative="1" as="geometry">
                        <Array as="points">
                            <mxPoint x="-535" y="1200"/>
                        </Array>
                    </mxGeometry>
                </mxCell>
                <mxCell id="65" value="D3 Texture Files" style="html=1;dashed=0;whiteSpace=wrap;shape=partialRectangle;right=0;fillColor=#d5e8d4;strokeColor=#82b366;" parent="1" vertex="1">
                    <mxGeometry x="-430" y="1180" width="140" height="40" as="geometry"/>
                </mxCell>
                <mxCell id="77" value="Shader code, vertex data" style="text;strokeColor=none;align=center;fillColor=none;html=1;verticalAlign=middle;whiteSpace=wrap;rounded=0;" parent="1" vertex="1">
                    <mxGeometry x="-950" y="980" width="140" height="30" as="geometry"/>
                </mxCell>
                <mxCell id="116" style="edgeStyle=none;html=1;" edge="1" parent="1" source="103" target="52">
                    <mxGeometry relative="1" as="geometry">
                        <Array as="points">
                            <mxPoint x="-1000" y="1105"/>
                        </Array>
                    </mxGeometry>
                </mxCell>
                <mxCell id="103" value="D1 Shaders Files (.glsl)" style="html=1;dashed=0;whiteSpace=wrap;shape=partialRectangle;right=0;fillColor=#d5e8d4;strokeColor=#82b366;" parent="1" vertex="1">
                    <mxGeometry x="-1070" y="1140" width="140" height="40" as="geometry"/>
                </mxCell>
                <mxCell id="128" style="edgeStyle=none;html=1;" edge="1" parent="1" source="108" target="53">
                    <mxGeometry relative="1" as="geometry">
                        <Array as="points">
                            <mxPoint x="-110" y="880"/>
                            <mxPoint x="-810" y="880"/>
                        </Array>
                    </mxGeometry>
                </mxCell>
                <mxCell id="108" value="MONITOR&amp;nbsp;" style="rounded=1;whiteSpace=wrap;html=1;fillColor=#dae8fc;strokeColor=#6c8ebf;" vertex="1" parent="1">
                    <mxGeometry x="-170" y="1160" width="120" height="60" as="geometry"/>
                </mxCell>
                <mxCell id="118" style="edgeStyle=none;html=1;" edge="1" parent="1" source="109" target="61">
                    <mxGeometry relative="1" as="geometry">
                        <Array as="points">
                            <mxPoint x="-360" y="1105"/>
                        </Array>
                    </mxGeometry>
                </mxCell>
                <mxCell id="109" value="D2 Vertex Buffers / Arrays" style="html=1;dashed=0;whiteSpace=wrap;shape=partialRectangle;right=0;fillColor=#d5e8d4;strokeColor=#82b366;" vertex="1" parent="1">
                    <mxGeometry x="-430" y="1000" width="140" height="40" as="geometry"/>
                </mxCell>
                <mxCell id="110" value="D4 Framebuffer" style="html=1;dashed=0;whiteSpace=wrap;shape=partialRectangle;right=0;fillColor=#d5e8d4;strokeColor=#82b366;" vertex="1" parent="1">
                    <mxGeometry x="-335" y="1580" width="140" height="40" as="geometry"/>
                </mxCell>
                <mxCell id="125" style="edgeStyle=none;html=1;" edge="1" parent="1" source="112" target="113">
                    <mxGeometry relative="1" as="geometry"/>
                </mxCell>
                <mxCell id="112" value="3.4 Rendering Execution (GPU Pipeline)" style="ellipse;whiteSpace=wrap;html=1;aspect=fixed;fillColor=#f8cecc;strokeColor=#b85450;" vertex="1" parent="1">
                    <mxGeometry x="-615" y="1360" width="130" height="130" as="geometry"/>
                </mxCell>
                <mxCell id="126" style="edgeStyle=none;html=1;" edge="1" parent="1" source="113" target="110">
                    <mxGeometry relative="1" as="geometry"/>
                </mxCell>
                <mxCell id="127" style="edgeStyle=none;html=1;" edge="1" parent="1" source="113" target="108">
                    <mxGeometry relative="1" as="geometry">
                        <Array as="points">
                            <mxPoint x="-110" y="1425"/>
                        </Array>
                    </mxGeometry>
                </mxCell>
                <mxCell id="113" value="3.5 Framebuffer Management &amp;amp; Analysis" style="ellipse;whiteSpace=wrap;html=1;aspect=fixed;fillColor=#f8cecc;strokeColor=#b85450;" vertex="1" parent="1">
                    <mxGeometry x="-330" y="1360" width="130" height="130" as="geometry"/>
                </mxCell>
                <mxCell id="130" value="Compiled shader binaries" style="text;strokeColor=none;align=center;fillColor=none;html=1;verticalAlign=middle;whiteSpace=wrap;rounded=0;" vertex="1" parent="1">
                    <mxGeometry x="-745" y="1070" width="140" height="30" as="geometry"/>
                </mxCell>
                <mxCell id="131" value="Vertex &amp;amp; texture data" style="text;strokeColor=none;align=center;fillColor=none;html=1;verticalAlign=middle;whiteSpace=wrap;rounded=0;" vertex="1" parent="1">
                    <mxGeometry x="-720" y="930" width="140" height="30" as="geometry"/>
                </mxCell>
                <mxCell id="132" value="GPU-ready buffers" style="text;strokeColor=none;align=center;fillColor=none;html=1;verticalAlign=middle;whiteSpace=wrap;rounded=0;" vertex="1" parent="1">
                    <mxGeometry x="-740" y="1210" width="140" height="30" as="geometry"/>
                </mxCell>
                <mxCell id="134" value="Configured uniforms, matrices" style="text;strokeColor=none;align=center;fillColor=none;html=1;verticalAlign=middle;whiteSpace=wrap;rounded=0;" vertex="1" parent="1">
                    <mxGeometry x="-780" y="1390" width="140" height="30" as="geometry"/>
                </mxCell>
                <mxCell id="135" value="Execution feedback (frame done)" style="text;strokeColor=none;align=center;fillColor=none;html=1;verticalAlign=middle;whiteSpace=wrap;rounded=0;" vertex="1" parent="1">
                    <mxGeometry x="-690" y="1530" width="140" height="30" as="geometry"/>
                </mxCell>
                <mxCell id="136" value="Framebuffer output" style="text;strokeColor=none;align=center;fillColor=none;html=1;verticalAlign=middle;whiteSpace=wrap;rounded=0;" vertex="1" parent="1">
                    <mxGeometry x="-485" y="1390" width="140" height="30" as="geometry"/>
                </mxCell>
                <mxCell id="137" value="VRAM → Display output" style="text;strokeColor=none;align=center;fillColor=none;html=1;verticalAlign=middle;whiteSpace=wrap;rounded=0;" vertex="1" parent="1">
                    <mxGeometry x="-260" y="1300" width="140" height="30" as="geometry"/>
                </mxCell>
                <mxCell id="138" value="Visual feedback" style="text;strokeColor=none;align=center;fillColor=none;html=1;verticalAlign=middle;whiteSpace=wrap;rounded=0;" vertex="1" parent="1">
                    <mxGeometry x="-240" y="1120" width="140" height="30" as="geometry"/>
                </mxCell>
            </root>
        </mxGraphModel>
    </diagram>
</mxfile>